<svg xml:space="preserve" style="max-height: 500px" viewBox="182.70000000000002 21.6555023923445 47.6 29.339712918660286" y="0px" x="0px" xmlns:xlink="https://www.w3.org/1999/xlink" xmlns="https://www.w3.org/2000/svg" id="uuid-1c36210a-eca8-424a-800d-5687c4139c13" version="1.1" width="47.6" height="29.339712918660286">
<style type="text/css">
	.st0{fill:#FFB81C;}
	.st1{fill:#FFFFFF;}
</style>
<g id="uuid-2566b1fe-4027-41ee-869e-ff287c9b2159">
	<g>
		<g>
			<polygon points="74.7,27.1 67.2,27.1 50.1,39.5 45.8,35.6 57.4,27.1 49.9,27.1 36.3,37 36.3,27.1 31.3,27.1 &#10;&#9;&#9;&#9;&#9;31.3,46.2 36.3,46.2 36.3,42.6 42.2,38.3 50.6,46.2 57.4,46.2 53.5,42.6 59.5,38.3 67.9,46.2 74.7,46.2 63.1,35.6" class="st0"/>
			<path d="M74.3,36.6c0-6.4,3.6-9.8,12.1-9.8s12.1,3.5,12.1,9.8s-3.6,9.9-12.1,9.9S74.3,43,74.3,36.6z M93.5,36.6&#10;&#9;&#9;&#9;&#9;c0-3.9-2-5.7-7.1-5.7s-7.1,1.8-7.1,5.7s2,5.8,7.1,5.8S93.5,40.5,93.5,36.6z" class="st1"/>
			<path d="M132.2,31.2h-4.9v-4.1h4.9V31.2z" class="st0"/>
			<path d="M132.2,46.2h-4.9V33.6h4.9V46.2z" class="st1"/>
			<path d="M147.3,34.7c-5.6-0.3-6.7-0.6-6.7-2.1s1.1-1.9,6-1.9c4.4,0,6.5,0.4,7.1,1.8h5c-0.5-4.1-4.8-5.7-11.5-5.7&#10;&#9;&#9;&#9;&#9;c-7.1,0-11.4,1.3-11.4,5.5s3.3,5.6,11.6,6c6.2,0.3,7.3,0.6,7.3,2.2c0,1.5-1.6,2.1-6.7,2.1s-7.2-0.7-7.7-2.1h-5&#10;&#9;&#9;&#9;&#9;c0.5,4.8,5.1,6,12.4,6s11.9-1,11.9-6.1C159.5,35.5,154.9,35.1,147.3,34.7L147.3,34.7z" class="st1"/>
			<path d="M113.3,42.1c3.7,0,6.3-0.8,6.3-5.5s-2.5-5.5-6.3-5.5h-7.2v8.5h-4.9V27.1h13.9c5,0,9.3,3.1,9.3,9.6&#10;&#9;&#9;&#9;&#9;s-4.4,9.6-9.3,9.6h-13.9v-4.1L113.3,42.1L113.3,42.1z" class="st1"/>
		</g>
		<path d="M8.9,46.2H2.5l17.3-19.2h8.1v19.2H23V30.7C23,30.7,8.9,46.2,8.9,46.2z" class="st1"/>
	</g>
	<rect height="37.9" width="1" class="st0" y="17.6" x="170.9"/>
</g>
<g id="uuid-144f532a-c4ee-451d-a33d-8d52d833d8df">
	<g>
		<path d="M238,31.6h4.3c1,0,1.9,0.2,2.7,0.6c0.8,0.4,1.4,0.9,1.8,1.7&#10;&#9;&#9;&#9;c0.4,0.7,0.7,1.5,0.7,2.5s-0.2,1.8-0.7,2.5c-0.4,0.7-1.1,1.3-1.8,1.7c-0.8,0.4-1.7,0.6-2.7,0.6H238V31.6L238,31.6z M242.2,39.2&#10;&#9;&#9;&#9;c0.9,0,1.7-0.3,2.3-0.8c0.6-0.5,0.9-1.2,0.9-2.1s-0.3-1.6-0.9-2.1c-0.6-0.5-1.3-0.8-2.3-0.8h-2v5.9L242.2,39.2L242.2,39.2z" class="st1" id="uuid-c5fcc598-31f7-4266-a8d5-6739c197b44c"/>
		<path d="M255.2,39h-4.4l-0.8,2h-2.2l4.2-9.5h2.2l4.2,9.5H256&#10;&#9;&#9;&#9;L255.2,39L255.2,39z M254.5,37.3l-1.5-3.6l-1.5,3.6H254.5L254.5,37.3z" class="st1" id="uuid-9c29b12e-4a78-4e78-951d-788a378b02d9"/>
		<path d="M260.8,33.4h-3v-1.8h8.2v1.8h-3V41h-2.2L260.8,33.4&#10;&#9;&#9;&#9;L260.8,33.4z" class="st1" id="uuid-c59dd1f5-d3b8-4f34-aee9-2a7e3ee8f2c0"/>
		<path d="M272.9,39h-4.4l-0.8,2h-2.2l4.2-9.5h2.2L276,41h-2.3&#10;&#9;&#9;&#9;L272.9,39z M272.2,37.3l-1.5-3.6l-1.5,3.6H272.2L272.2,37.3z" class="st1" id="uuid-358eb618-6250-4313-822b-acfc6fcd54c8"/>
		<path d="M286.9,41l-1.8-2.6h-2V41h-2.2v-9.5h4c0.8,0,1.5,0.1,2.1,0.4&#10;&#9;&#9;&#9;s1.1,0.7,1.4,1.2s0.5,1.1,0.5,1.8s-0.2,1.3-0.5,1.8s-0.8,0.9-1.4,1.2l2.1,3L286.9,41L286.9,41z M286.3,33.8&#10;&#9;&#9;&#9;c-0.4-0.3-0.8-0.4-1.5-0.4H283v3.3h1.8c0.7,0,1.2-0.1,1.5-0.4c0.4-0.3,0.5-0.7,0.5-1.2S286.7,34.1,286.3,33.8z" class="st1" id="uuid-2f1532f0-541f-4ec9-9441-2dcc9db0da49"/>
		<path d="M298,39.3V41h-7.3v-9.5h7.1v1.8h-4.9v2h4.4v1.8h-4.4v2.2&#10;&#9;&#9;&#9;L298,39.3L298,39.3z" class="st1" id="uuid-fee9f551-e068-49c6-b1c7-ca7b831ecb0e"/>
		<path d="M300.7,40.9c-0.7-0.2-1.3-0.5-1.7-0.8l0.7-1.6&#10;&#9;&#9;&#9;c0.4,0.3,0.9,0.5,1.4,0.7s1.1,0.3,1.7,0.3c0.6,0,1.1-0.1,1.4-0.3c0.3-0.2,0.5-0.4,0.5-0.7c0-0.2-0.1-0.4-0.3-0.6&#10;&#9;&#9;&#9;c-0.2-0.2-0.4-0.3-0.7-0.4s-0.6-0.2-1.1-0.3c-0.7-0.2-1.3-0.3-1.8-0.5s-0.9-0.5-1.2-0.8s-0.5-0.9-0.5-1.5c0-0.5,0.1-1,0.5-1.5&#10;&#9;&#9;&#9;c0.3-0.5,0.7-0.8,1.3-1.1s1.3-0.4,2.2-0.4c0.6,0,1.2,0.1,1.8,0.2s1.1,0.3,1.5,0.6l-0.7,1.7c-0.9-0.5-1.7-0.7-2.6-0.7&#10;&#9;&#9;&#9;c-0.6,0-1.1,0.1-1.4,0.3s-0.4,0.5-0.4,0.8s0.2,0.6,0.5,0.7s0.9,0.3,1.5,0.5c0.7,0.2,1.3,0.3,1.8,0.5c0.5,0.2,0.9,0.4,1.2,0.8&#10;&#9;&#9;&#9;c0.3,0.4,0.5,0.9,0.5,1.5c0,0.5-0.1,1-0.5,1.5c-0.3,0.5-0.8,0.8-1.4,1.1s-1.3,0.4-2.2,0.4C302.1,41.2,301.4,41.1,300.7,40.9&#10;&#9;&#9;&#9;L300.7,40.9z" class="st1" id="uuid-211ab1be-6a23-4075-bb10-028074c9b548"/>
		<path d="M314.6,32c0.6,0.3,1.1,0.7,1.4,1.2s0.5,1.1,0.5,1.8&#10;&#9;&#9;&#9;s-0.2,1.3-0.5,1.8c-0.3,0.5-0.8,0.9-1.4,1.2s-1.3,0.4-2.2,0.4h-1.9V41h-2.2v-9.5h4.1C313.2,31.6,314,31.7,314.6,32L314.6,32z&#10;&#9;&#9;&#9; M313.7,36.2c0.3-0.3,0.5-0.7,0.5-1.2s-0.2-0.9-0.5-1.2s-0.8-0.4-1.5-0.4h-1.8v3.2h1.8C312.9,36.7,313.4,36.5,313.7,36.2z" class="st1" id="uuid-4c906fa5-6f98-40d3-b82b-578516369a1a"/>
		<path d="M320.1,40.5c-0.8-0.4-1.4-1-1.8-1.7&#10;&#9;&#9;&#9;c-0.5-0.7-0.7-1.6-0.7-2.5s0.2-1.8,0.7-2.5s1.1-1.3,1.8-1.7c0.8-0.4,1.7-0.6,2.6-0.6s1.9,0.2,2.6,0.6s1.4,1,1.8,1.7&#10;&#9;&#9;&#9;c0.5,0.7,0.7,1.6,0.7,2.5s-0.2,1.8-0.7,2.5c-0.5,0.7-1.1,1.3-1.8,1.7c-0.8,0.4-1.7,0.6-2.6,0.6S320.9,41,320.1,40.5z M324.3,38.9&#10;&#9;&#9;&#9;c0.5-0.3,0.8-0.6,1.1-1.1s0.4-1,0.4-1.6s-0.1-1.1-0.4-1.6c-0.3-0.5-0.6-0.8-1.1-1.1s-1-0.4-1.5-0.4s-1.1,0.1-1.5,0.4&#10;&#9;&#9;&#9;c-0.5,0.3-0.8,0.6-1.1,1.1s-0.4,1-0.4,1.6s0.1,1.1,0.4,1.6c0.3,0.5,0.6,0.8,1.1,1.1c0.5,0.3,1,0.4,1.5,0.4S323.8,39.2,324.3,38.9z" class="st1" id="uuid-06eb5583-ed76-4200-948b-e57fb8f7af61"/>
		<path d="M338.2,31.6V41h-1.8l-4.7-5.7V41h-2.2v-9.5h1.9l4.7,5.7v-5.7&#10;&#9;&#9;&#9;H338.2L338.2,31.6z" class="st1" id="uuid-e30298b9-d98d-48ef-8039-c1b932383922"/>
		<path d="M341.4,40.9c-0.7-0.2-1.3-0.5-1.7-0.8l0.7-1.6&#10;&#9;&#9;&#9;c0.4,0.3,0.9,0.5,1.4,0.7c0.5,0.2,1.1,0.3,1.7,0.3c0.6,0,1.1-0.1,1.4-0.3c0.3-0.2,0.5-0.4,0.5-0.7c0-0.2-0.1-0.4-0.3-0.6&#10;&#9;&#9;&#9;c-0.2-0.2-0.4-0.3-0.7-0.4s-0.6-0.2-1.1-0.3c-0.7-0.2-1.3-0.3-1.8-0.5s-0.9-0.5-1.2-0.8s-0.5-0.9-0.5-1.5c0-0.5,0.1-1,0.5-1.5&#10;&#9;&#9;&#9;c0.3-0.5,0.7-0.8,1.3-1.1c0.6-0.3,1.3-0.4,2.2-0.4c0.6,0,1.2,0.1,1.8,0.2s1.1,0.3,1.5,0.6l-0.7,1.7c-0.9-0.5-1.7-0.7-2.6-0.7&#10;&#9;&#9;&#9;c-0.6,0-1.1,0.1-1.4,0.3s-0.4,0.5-0.4,0.8s0.2,0.6,0.5,0.7s0.9,0.3,1.5,0.5c0.7,0.2,1.3,0.3,1.8,0.5c0.5,0.2,0.9,0.4,1.2,0.8&#10;&#9;&#9;&#9;c0.3,0.4,0.5,0.9,0.5,1.5c0,0.5-0.1,1-0.5,1.5c-0.3,0.5-0.8,0.8-1.4,1.1s-1.3,0.4-2.2,0.4C342.8,41.2,342.1,41.1,341.4,40.9&#10;&#9;&#9;&#9;L341.4,40.9z" class="st1" id="uuid-f2d6937d-de4d-4185-baf9-ddfea3ff1d2e"/>
		<a xlink:href="52.6494117647059">
			<path d="M202.3,43.2l-2-2.8c4.6-1.8,5.4-5.5,5.4-8.9&#10;&#9;&#9;&#9;&#9;s-0.9-5.7-2.8-7.2c-1.9-1.5-5-2.2-9.4-2.2h-10.3v5.5h12.2c2.3,0,4.1,1.8,4.1,4.1v0.2c0,2.3-1.9,4.1-4.1,4.1h-5.9l7.7,11&#10;&#9;&#9;&#9;&#9;c1.6,2.2,4.1,3.5,6.8,3.5h3.4C207.4,50.5,202.3,43.2,202.3,43.2z" class="st1" id="uuid-44ac4064-2297-4a5f-9fb9-045779d4b779"/>
		</a>
		<a xlink:href="52.6494117647059">
			<path d="M225.6,25.9c-2.7-2.5-6.6-3.7-11.7-3.7h-11.4&#10;&#9;&#9;&#9;&#9;c1,0.4,1.9,0.8,2.6,1.4c1.3,1,2.1,2.4,2.7,4.1h6c3.2,0,5.6,0.8,7.2,2.3c1.6,1.5,2.3,3.7,2.3,6.4s-0.8,4.9-2.3,6.4&#10;&#9;&#9;&#9;&#9;c-1.6,1.5-3.8,2.2-6.7,2.2h-7.9l3.9,5.5h5.4c3.2,0,7.7-1.6,10-3.8c2.6-2.6,4-6.1,4-10.5C229.6,31.8,228.3,28.3,225.6,25.9&#10;&#9;&#9;&#9;&#9;L225.6,25.9z" class="st1" id="uuid-a720ca60-066a-46f9-82f6-cf7683c23035"/>
		</a>
	</g>
</g>
</svg>