<svg version="1.1" id="Layer_1" xmlns="http://www.w3.org/2000/svg" xmlns:xlink="http://www.w3.org/1999/xlink" x="0px" y="0px" viewBox="0 0 256.2 304" style="enable-background:new 0 0 256.2 304;" xml:space="preserve">
 <style type="text/css">
  .st0{fill:#FF1243;}
 </style>
 <g>
  <path class="st0" d="M143.3,251.4l18.8,10.9c1.1,0.6,1.8,1.8,1.8,3.1l0,21.8c0,1.8-2,3-3.6,2.1l-18.8-10.9
		c-1.1-0.6-1.8-1.8-1.8-3.1v-21.8C139.7,251.6,141.7,250.5,143.3,251.4z M158.4,225.2l18.8,10.9c1.1,0.6,2.5,0.6,3.6,0l18.8-10.9
		c1.6-0.9,1.6-3.2,0-4.2l-18.8-10.9c-1.1-0.6-2.5-0.6-3.6,0L158.4,221C156.9,221.9,156.9,224.2,158.4,225.2z M90.2,220.7l-42.4-24.5
		c-1.3-0.7-2.8-0.7-4.1,0L1.3,220.7c-1.8,1-1.8,3.6,0,4.7l42.4,24.5c1.3,0.7,2.8,0.7,4.1,0l42.4-24.5C92,224.4,92,221.8,90.2,220.7z
		 M106.7,250.9l-28.3,16.3c-0.8,0.5-1.4,1.4-1.4,2.3v32.7c0,1.4,1.5,2.3,2.7,1.6l28.3-16.3c0.8-0.5,1.3-1.4,1.3-2.3v-32.7
		C109.4,251.1,107.9,250.2,106.7,250.9z M246.4,0.9L144.6,59.5c-3,1.7-4.9,5-4.9,8.4v117.5c0,5,5.5,8.1,9.8,5.6l101.9-58.7
		c3-1.7,4.8-5,4.8-8.4V6.5C256.2,1.5,250.7-1.6,246.4,0.9z M28.5,64.6v81.7c0,2.4,1.2,4.7,3.3,5.9l70.7,40.8c3,1.7,6.8-0.4,6.8-3.9
		v-81.7c0-2.4-1.3-4.7-3.4-5.9L35.3,60.7C32.3,59,28.5,61.2,28.5,64.6z">
  </path>
 </g>
</svg>