<svg fill="none" xmlns="https://www.w3.org/2000/svg" viewBox="0 0 22.65 31.699530516431924" style="max-height: 500px" width="22.65" height="31.699530516431924"><path d="M14.983 30.766V15.667H0v.517c2.956 5.862 7.955 11.007 14.338 14.582h.645ZM22.486 22.765v-7.1h-7.044v.243c1.389 2.757 3.74 5.175 6.742 6.856h.302v.001ZM14.983 15.099V0H0v.517c2.956 5.862 7.955 11.007 14.338 14.582h.645ZM22.486 7.099V0h-7.044v.242C16.83 3 19.181 5.418 22.183 7.1h.302Z" fill="#EB003F"/><path d="m28.238 30.498 1.193-3.362V9.63l-1.193-3.362v-.24h8.585v.24L35.63 9.63v17.506l1.193 3.363v.24h-8.585v-.24ZM60.357 30.498v.24h-8.345v-.24l1.193-3.363V20.33c0-3.523-1.43-4.724-3.418-4.724-1.193 0-2.465.52-3.26 1.32v10.21l1.193 3.363v.24h-8.345v-.24l1.193-3.363v-10.77l-1.193-3.162v-.241l6.915-1.722.239.12v4.164c1.152-2.682 3.697-4.284 6.358-4.284 4.371 0 6.279 3.523 6.279 8.247v7.647l1.191 3.364ZM80.865 5.508l-3.1 3.163h-.159c-1.193-2.323-2.384-3.404-3.895-3.404-2.146 0-3.537 1.966-3.537 6.13v2.325l5.643-2.483.24.16-.796 4.205-5.086-.2v11.73l1.67 3.363v.24H63.02v-.24l1.193-3.363v-11.53h-3.02l-.159-.241c.954-1.641 1.908-2.723 3.338-3.644.834-5.604 4.61-8.335 10.015-8.335 2.384.003 4.65.762 6.477 2.124Z" fill="#fff"/><path d="m91.984 12.001-1.63 4.764h-.239c-.635-.52-1.39-.76-2.185-.76-1.152 0-2.465.52-3.38 1.28v9.849l1.67 3.362v.241h-8.822v-.24l1.193-3.363V16.366l-1.193-3.163v-.241l6.915-1.722.24.12v4.405c1.31-2.763 3.337-4.404 5.404-4.404.794 0 1.589.24 2.027.64ZM90.758 21.41c0-6.005 4.252-9.969 10.651-9.969 6.2 0 10.054 3.764 10.054 9.689 0 6.005-4.252 9.969-10.651 9.969-6.2 0-10.054-3.723-10.054-9.689Zm14.624 2.643c0-5.365-2.741-10.73-5.563-10.73-1.868 0-2.941 1.922-2.941 5.165 0 5.365 2.741 10.73 5.604 10.73 1.866-.001 2.9-1.923 2.9-5.165ZM133.759 30.498v.24h-8.345v-.24l1.193-3.363V20.33c0-3.523-1.43-4.724-3.418-4.724-1.193 0-2.464.52-3.259 1.32v10.21l1.193 3.363v.24h-8.346v-.24l1.193-3.363v-10.77l-1.193-3.162v-.241l6.915-1.722.239.12v4.164c1.152-2.682 3.697-4.284 6.358-4.284 4.372 0 6.279 3.523 6.279 8.247v7.647l1.191 3.364ZM148.821 25.975l.238.16c-.834 3.284-3.14 4.964-6.04 4.964-3.895 0-5.961-2.562-5.961-7.286v-8.208h-3.02l-.159-.24c1.55-3.324 4.809-6.006 8.902-7.167l.239.16v5.365l5.922-2.482.239.16-.794 4.204-5.365-.2v7.127c0 3.123 1.034 4.444 3.059 4.444.992 0 1.867-.36 2.74-1Z" fill="#fff"/></svg>