<svg xml:space="preserve" style="max-height: 500px" viewBox="23.471999999999998 268.62399999999997 113.448 114.752" y="0px" x="0px" xmlns:xlink="http://www.w3.org/1999/xlink" xmlns="http://www.w3.org/2000/svg" id="layer" version="1.1" width="113.448" height="114.752">
<style type="text/css">
	.st0{fill:#00509E;}
</style>
<g>
	<path d="M52.7,298.6h54.5v54.5H52.7V298.6z M107.3,271.3H52.7c-15.1,0-27.3,12.2-27.3,27.3v54.5&#10;&#9;&#9;c0,15,12.2,27.3,27.3,27.3h54.5c15.1,0,27.3-12.2,27.3-27.3v-54.5C134.5,283.5,122.3,271.3,107.3,271.3" class="st0"/>
	<path d="M79.8,303.3c-12.4,0-22.4,10-22.4,22.4c0,12.4,10,22.4,22.4,22.4c12.4,0,22.4-10,22.4-22.4&#10;&#9;&#9;C102.2,313.3,92.2,303.3,79.8,303.3" class="st0"/>
	<polygon points="210.8,271.5 263.9,348.7 263.9,289.3 263.8,275.1 247.8,275.1 247.8,271.5 282.1,271.5 282.1,275.1 268.8,275.1 &#10;&#9;&#9;268.7,289.3 268.7,381.2 266.2,382 195,278.4 195,361.6 195.2,376.1 211.6,376.1 211.6,379.8 176.1,379.8 176.1,376.1 190.3,376.1 &#10;&#9;&#9;190.4,361.6 190.4,289.3 190.3,275.1 176.1,275.1 176.1,271.5"/>
	<path d="M388,271.5v34.7h-4.6c-0.5-5.4-1.1-12.1-5.8-20.1c-5.5-9.4-13-9.8-20.4-10.1h-8.6l-0.2,13.8v70.8l0.2,15.7h16.6v3.7h-50.3&#10;&#9;&#9;v-3.7h16.6l0.2-15.7v-70.8l-0.2-13.8h-7.1c-8.9,0.1-15.7,0.1-22.1,10.4c-5.1,8.1-5.5,14.6-5.8,19.8h-4.4v-34.7H388"/>
	<polygon points="431.6,271.5 484.7,348.7 484.7,289.3 484.5,275.1 468.6,275.1 468.6,271.5 502.8,271.5 502.8,275.1 489.6,275.1 &#10;&#9;&#9;489.4,289.3 489.4,381.2 487,382 415.8,278.4 415.8,361.6 415.9,376.1 432.3,376.1 432.3,379.8 396.9,379.8 396.9,376.1 411,376.1 &#10;&#9;&#9;411.2,361.6 411.2,289.3 411,275.1 396.9,275.1 396.9,271.5"/>
	<path d="M562.4,271.5v3.7h-15.2l-0.2,13v58.6c0.2,15.2,0.5,29.6,29,29.6c28.9,0,30.7-12.6,31.2-26.2v-62l-0.1-13h-15.5v-3.7h33.9&#10;&#9;&#9;v3.7h-13.4l-0.1,13v55.9c-0.2,20.1-0.3,37.3-40.1,37.3c-5.7,0-19.2-0.6-27.8-4.1c-13.7-5.8-14-17.8-14.1-32.5v-56.5l-0.1-13h-13.2&#10;&#9;&#9;v-3.7H562.4"/>
</g>
</svg>